<svg xmlns="http://www.w3.org/2000/svg" viewBox="0 0 100 100">
  <!--
    Safari pinned tab icon — must be a single monochrome path.
    Shape: padlock outline.
    Safe zone: full viewBox used, no margins needed for Safari mask icon.
  -->
  <path fill="#000000" d="
    M50 4
    C34.536 4 22 16.536 22 32
    L22 44
    L14 44
    C9.582 44 6 47.582 6 52
    L6 90
    C6 94.418 9.582 98 14 98
    L86 98
    C90.418 98 94 94.418 94 90
    L94 52
    C94 47.582 90.418 44 86 44
    L78 44
    L78 32
    C78 16.536 65.464 4 50 4
    Z
    M50 16
    C58.837 16 66 23.163 66 32
    L66 44
    L34 44
    L34 32
    C34 23.163 41.163 16 50 16
    Z
    M50 58
    C55.523 58 60 62.477 60 68
    C60 71.861 57.838 75.22 54.667 77.059
    L54.667 84
    C54.667 86.577 52.577 88.667 50 88.667
    C47.423 88.667 45.333 86.577 45.333 84
    L45.333 77.059
    C42.162 75.22 40 71.861 40 68
    C40 62.477 44.477 58 50 58
    Z
  "/>
</svg>
